<svg id="Layer_1" height="512" viewBox="0 0 512 512" width="512" xmlns="http://www.w3.org/2000/svg" xmlns:xlink="http://www.w3.org/1999/xlink" data-name="Layer 1"><linearGradient id="linear-gradient" gradientUnits="userSpaceOnUse" x1="57.662" x2="324.129" y1="501.051" y2="39.517"><stop offset="0" stop-color="#9d31fe"/><stop offset=".12" stop-color="#9637fc"/><stop offset=".299" stop-color="#8149f6"/><stop offset=".517" stop-color="#6067ec"/><stop offset=".761" stop-color="#318fde"/><stop offset=".895" stop-color="#15a8d6"/></linearGradient><path d="m445.245 220.862a44.076 44.076 0 0 0 -38.221 22.186l-82.724-14.388a69.422 69.422 0 0 0 -5.646-24.608l36.592-26.3a52.3 52.3 0 1 0 -17.531-24.352l-36.6 26.305a69.741 69.741 0 0 0 -84.355-6.857l-95.68-95.679a52.359 52.359 0 1 0 -21.213 21.213l95.683 95.682a69.6 69.6 0 0 0 -8.481 18.905l-18.139-1.008a34.641 34.641 0 1 0 -1.671 29.954l18.138 1.008a69.687 69.687 0 0 0 16.043 34.377l-79.077 105.269a67.84 67.84 0 1 0 23.972 18.038l79.074-105.261a69.863 69.863 0 0 0 93.745-37.13l82.717 14.384a44.053 44.053 0 1 0 43.374-51.74zm-58.074-106.862a22.332 22.332 0 1 1 -22.331 22.33 22.357 22.357 0 0 1 22.331-22.33zm-334.471-61.668a22.332 22.332 0 1 1 22.33 22.331 22.357 22.357 0 0 1 -22.33-22.331zm84.235 177.508a4.634 4.634 0 1 1 4.633-4.633 4.639 4.639 0 0 1 -4.633 4.633zm-42.202 252.16a37.677 37.677 0 1 1 37.676-37.676 37.718 37.718 0 0 1 -37.676 37.676zm159.7-210.322a39.943 39.943 0 1 1 39.942-39.943 39.988 39.988 0 0 1 -39.942 39.943zm190.812 7.3a14.058 14.058 0 1 1 14.055-14.058 14.073 14.073 0 0 1 -14.055 14.057z" fill="url(#linear-gradient)"/></svg>